<?xml version="1.0" encoding="UTF-8"?>
<svg version="1.1" xmlns="http://www.w3.org/2000/svg" width="256" height="256">
<path d="M0 0 C0 6.6 0 13.2 0 20 C-3.073125 20.103125 -6.14625 20.20625 -9.3125 20.3125 C-22.04810394 20.53386554 -22.04810394 20.53386554 -33.17578125 25.84375 C-34.99586641 27.99511405 -35.84788525 29.52305781 -36.6875 32.1875 C-36.91824219 32.88230469 -37.14898437 33.57710937 -37.38671875 34.29296875 C-39.14446963 42.05170352 -39.1560838 49.91845799 -39.2109375 57.83203125 C-39.2390041 60.11784573 -39.26766855 62.40365293 -39.296875 64.68945312 C-39.33805057 68.25040493 -39.37499052 71.81122051 -39.40136719 75.37231445 C-39.42918933 78.83832923 -39.47504903 82.30375031 -39.5234375 85.76953125 C-39.52669037 86.81679886 -39.52994324 87.86406647 -39.53329468 88.94306946 C-39.71202772 99.85192394 -41.40397513 110.69851277 -49 119 C-53.39822033 122.67681911 -57.28771866 125.11655403 -63 126 C-63 126.66 -63 127.32 -63 128 C-61.89978516 128.17015625 -61.89978516 128.17015625 -60.77734375 128.34375 C-54.4715662 129.83372276 -49.4001983 133.94704722 -45.625 139.125 C-40.37676063 148.05109024 -39.55973343 157.90333137 -39.55859375 168.0546875 C-39.53878197 169.7107048 -39.53878197 169.7107048 -39.51856995 171.400177 C-39.47809434 174.89181071 -39.45613785 178.38318682 -39.4375 181.875 C-40.93272115 206.66102853 -40.93272115 206.66102853 -33 229 C-25.63924347 233.08930918 -17.8411696 233.20460627 -9.625 233.5625 C-6.44875 233.706875 -3.2725 233.85125 0 234 C0 240.93 0 247.86 0 255 C-42.3690732 255.71811988 -42.3690732 255.71811988 -55.54296875 243.578125 C-70.03569857 228.54862741 -66.34718107 199.85155914 -66.45629883 180.70068359 C-66.47804369 177.48770134 -66.51742635 174.27528378 -66.55859375 171.0625 C-66.55870956 170.09876465 -66.55882538 169.1350293 -66.5589447 168.14208984 C-66.6836126 159.52329795 -68.13618048 150.65622756 -74 144 C-83.74029184 137.31461788 -95.66812196 137.5713552 -107 137 C-107 130.4 -107 123.8 -107 117 C-97.0625 116.1875 -97.0625 116.1875 -93.98852539 115.95385742 C-86.8310939 115.31833585 -79.97006585 114.31005121 -74.1875 109.8125 C-69.26026034 103.47747758 -66.92151381 97.26905035 -66.82641602 89.2199707 C-66.81292618 88.29742996 -66.79943634 87.37488922 -66.78553772 86.4243927 C-66.77509933 85.43485092 -66.76466095 84.44530914 -66.75390625 83.42578125 C-66.72091769 81.2910123 -66.68770704 79.15624677 -66.65429688 77.02148438 C-66.60732716 73.68712151 -66.56298047 70.35276707 -66.52319336 67.01831055 C-65.94765698 20.96506161 -65.94765698 20.96506161 -55.01953125 9.71484375 C-40.20323146 -2.86611487 -18.04008289 -0.35605427 0 0 Z " fill="#DF0072" transform="translate(107,1)"/>
<path d="M0 0 C42.61298328 -0.80289641 42.61298328 -0.80289641 55.0234375 9.71484375 C69.7704433 24.92852695 66.34794336 52.237665 66.45629883 71.68676758 C66.4780785 74.97501884 66.51747989 78.26272287 66.55859375 81.55078125 C66.55876747 83.03086418 66.55876747 83.03086418 66.5589447 84.54084778 C66.68333967 93.38697858 67.8660925 103.20296736 74 110 C83.35676141 116.67389854 96.02114902 116.34779103 107 117 C107 123.6 107 130.2 107 137 C104.6075 137.103125 102.215 137.20625 99.75 137.3125 C90.69067768 137.83136471 80.73519593 138.50886669 73.3984375 144.4140625 C68.43079877 150.04775335 66.90847382 157.69143443 66.82641602 164.99536133 C66.81292618 165.96439896 66.79943634 166.93343658 66.78553772 167.93183899 C66.77509933 168.97140244 66.76466095 170.01096588 66.75390625 171.08203125 C66.72092961 173.31706064 66.68771869 175.55208659 66.65429688 177.78710938 C66.60722849 181.28407092 66.56285702 184.78102257 66.52319336 188.27807617 C65.99233972 232.94925133 65.99233972 232.94925133 55.02734375 244.28515625 C40.40698266 256.65189713 17.99086048 255.14508758 0 255 C0 248.07 0 241.14 0 234 C9.4375 233.625 9.4375 233.625 12.35327148 233.52197266 C20.43411702 233.15754722 28.76808128 232.63840265 35 227 C39.59235823 218.73375518 39.15994284 209.05628375 39.24609375 199.890625 C39.27903608 197.50260055 39.31224766 195.11457981 39.34570312 192.7265625 C39.39301152 188.98993489 39.43746503 185.25332187 39.47680664 181.51660156 C39.51679708 177.89112139 39.56827377 174.26593792 39.62109375 170.640625 C39.6295079 169.53817444 39.63792206 168.43572388 39.64659119 167.29986572 C39.82472571 155.97837909 40.73478137 143.93858325 48.671875 135.1484375 C52.78405529 131.45475344 57.30585377 128 63 128 C63 127.34 63 126.68 63 126 C61.89978516 125.82984375 61.89978516 125.82984375 60.77734375 125.65625 C54.50341224 124.17380205 49.41406911 120.06833424 45.625 114.9375 C40.1537277 105.62978273 39.55972636 94.86243772 39.55859375 84.3046875 C39.54538589 83.1505838 39.53217804 81.9964801 39.51856995 80.80740356 C39.47811627 77.16324376 39.45613056 73.5193316 39.4375 69.875 C39.41356989 66.22360363 39.38525387 62.57243535 39.34571838 58.9211731 C39.32170586 56.66285146 39.30656894 54.40441046 39.30210876 52.14596558 C39.21165758 38.37516289 39.21165758 38.37516289 34 26 C26.56621041 20.89029984 18.34469079 20.81732695 9.625 20.4375 C4.860625 20.2209375 4.860625 20.2209375 0 20 C0 13.4 0 6.8 0 0 Z " fill="#DF0072" transform="translate(149,1)"/>
</svg>
